<?xml version="1.0" standalone="no"?>
<!DOCTYPE svg PUBLIC "-//W3C//DTD SVG 20010904//EN"
 "http://www.w3.org/TR/2001/REC-SVG-20010904/DTD/svg10.dtd">
<svg version="1.0" xmlns="http://www.w3.org/2000/svg"
 width="432.000000pt" height="297.000000pt" viewBox="0 0 432.000000 297.000000"
 preserveAspectRatio="xMidYMid meet">
<metadata>
Created by potrace 1.16, written by Peter Selinger 2001-2019
</metadata>
<g transform="translate(0.000000,297.000000) scale(0.100000,-0.100000)"
fill="#000000" stroke="none">
<path d="M2650 2479 c-13 -5 -31 -16 -40 -23 -8 -8 -33 -17 -55 -21 -29 -5
-52 -19 -82 -51 -24 -24 -50 -44 -59 -44 -9 0 -31 -8 -48 -19 -17 -10 -49 -19
-71 -19 -22 -1 -51 -10 -67 -22 -15 -11 -38 -20 -52 -20 -14 0 -36 -4 -51 -10
-31 -12 -100 2 -161 32 -22 12 -56 21 -75 22 -19 1 -48 9 -66 19 -18 9 -46 17
-63 17 -18 0 -45 10 -62 21 -41 30 -108 36 -142 14 -35 -23 -83 -125 -96 -206
-11 -60 -10 -71 8 -105 11 -22 28 -47 39 -56 24 -22 90 -50 111 -47 10 2 33
-7 52 -19 20 -12 51 -22 72 -22 21 0 52 -9 70 -20 18 -11 48 -20 66 -20 19 0
48 -10 65 -22 25 -18 44 -23 87 -21 30 0 64 1 75 0 101 -3 115 -1 144 21 17
12 45 22 63 22 18 0 48 9 66 20 18 11 48 20 68 20 43 0 84 20 116 58 13 16 39
34 56 40 l33 11 -7 -47 c-3 -26 -15 -56 -25 -67 -23 -26 -39 -69 -39 -107 0
-17 -10 -46 -22 -65 -20 -33 -26 -80 -20 -153 2 -14 0 -50 -4 -81 -5 -42 -2
-64 11 -88 9 -18 14 -35 12 -38 -5 -5 -47 14 -117 53 -43 24 -50 25 -153 19
-59 -3 -122 -11 -140 -17 -43 -14 -96 -55 -109 -83 -5 -12 -25 -29 -44 -38
-64 -31 -174 -195 -174 -260 0 -15 9 -62 20 -105 26 -105 42 -259 42 -425 0
-187 0 -187 151 -187 160 0 157 -4 150 195 -7 188 6 284 50 368 27 52 31 69
30 132 -1 61 3 77 21 100 l22 28 30 -19 c16 -10 47 -38 69 -60 68 -71 163 -79
310 -26 88 31 140 65 182 120 53 70 64 149 29 207 -8 13 -11 54 -9 115 3 128
13 189 35 225 10 16 18 44 18 61 0 19 8 38 21 50 25 22 49 74 49 106 0 12 11
33 24 47 24 27 47 84 73 186 14 55 14 65 -1 117 -26 91 -89 148 -161 148 -14
0 -39 10 -56 22 -29 22 -59 25 -139 18 -14 -1 -43 1 -65 4 -22 3 -51 1 -65 -5z
m123 -62 c20 1 51 3 67 4 20 1 38 -5 53 -19 16 -15 36 -22 65 -22 57 0 110
-47 119 -105 l6 -40 -21 19 c-12 10 -42 21 -68 24 -26 3 -64 16 -83 29 -30 20
-44 24 -81 19 -57 -7 -66 -7 -117 0 -33 5 -51 1 -90 -20 -26 -14 -61 -28 -77
-31 -16 -3 -49 -26 -74 -51 -25 -24 -53 -44 -61 -44 -9 0 -27 -7 -40 -16 -13
-9 -43 -18 -67 -20 -25 -1 -59 -11 -77 -22 -27 -16 -91 -32 -132 -33 -32 -1
-95 15 -128 33 -21 11 -55 21 -75 23 -20 1 -58 12 -85 24 -26 12 -55 21 -65
19 -9 -1 -34 8 -55 21 -33 20 -47 23 -98 18 l-58 -5 15 36 c32 77 66 90 124
47 21 -16 47 -25 69 -25 20 0 50 -9 66 -20 17 -11 47 -20 69 -20 26 0 52 -9
76 -25 30 -21 48 -25 110 -26 134 -2 151 0 182 26 22 19 41 25 78 25 30 0 52
5 60 15 7 8 30 20 52 26 25 6 55 27 82 55 33 34 50 44 74 44 17 0 34 5 38 11
11 19 68 38 89 31 11 -4 37 -6 58 -5z m-3 -159 c14 0 39 3 55 7 23 5 39 0 68
-19 25 -17 51 -26 77 -26 30 0 45 -7 69 -31 35 -35 36 -38 16 -65 -8 -10 -15
-32 -15 -47 0 -20 -11 -38 -35 -60 -31 -27 -34 -35 -29 -64 6 -30 2 -38 -33
-71 -36 -33 -39 -41 -36 -77 3 -32 -1 -46 -22 -70 -20 -22 -25 -37 -21 -58 3
-15 -1 -45 -10 -66 -12 -30 -13 -44 -5 -60 16 -28 14 -65 -6 -106 -16 -34 -16
-36 5 -58 33 -35 42 -77 26 -122 -7 -21 -20 -45 -28 -53 -14 -14 -17 -14 -33
0 -31 27 -92 40 -161 36 -75 -5 -114 4 -154 38 -44 36 -118 48 -225 35 -114
-12 -174 -37 -205 -85 -13 -19 -35 -40 -50 -47 -53 -22 -63 -43 -60 -132 2
-45 8 -108 14 -140 9 -48 15 -60 35 -68 18 -6 23 -14 18 -28 -3 -10 1 -24 10
-31 18 -15 11 -30 -16 -30 -18 0 -19 -8 -18 -162 0 -89 3 -167 6 -175 6 -16
39 -17 49 -1 4 6 7 70 6 141 -1 127 -1 131 23 153 14 13 25 33 25 46 0 39 -30
112 -58 141 -24 25 -26 36 -30 122 l-4 95 46 21 c30 13 46 26 46 38 0 36 55
68 129 76 28 2 63 8 76 11 41 10 113 -6 144 -32 44 -36 113 -54 186 -47 66 6
139 -11 132 -30 -2 -7 -37 -25 -78 -41 -124 -48 -244 -36 -269 29 -5 13 -24
32 -42 41 -18 9 -43 25 -55 36 -31 29 -93 7 -93 -32 0 -10 -12 -28 -26 -39
-23 -18 -25 -25 -19 -63 12 -70 7 -107 -24 -172 -41 -83 -54 -181 -49 -364 l4
-153 -90 3 -90 3 -2 145 c-2 166 -18 320 -40 399 -25 88 -23 130 9 181 67 107
86 127 150 150 16 6 27 17 27 28 0 25 39 60 78 71 17 5 71 13 120 16 93 8 133
-3 173 -44 9 -10 42 -23 74 -31 56 -13 58 -13 76 9 24 30 24 51 -2 101 -17 32
-20 50 -14 83 7 40 7 56 4 140 -1 26 6 48 20 67 13 18 21 44 21 69 0 50 16 86
47 106 17 11 23 24 22 43 -4 54 2 70 36 104 32 31 35 37 25 62 -9 26 -12 27
-57 20 -27 -4 -59 -15 -72 -25 -12 -10 -38 -21 -56 -25 -22 -4 -44 -20 -69
-50 -34 -40 -41 -44 -82 -44 -31 0 -54 -7 -71 -20 -16 -13 -41 -20 -66 -20
-28 0 -53 -8 -79 -26 -29 -20 -44 -25 -65 -19 -36 9 -80 9 -116 0 -21 -6 -36
-1 -65 19 -25 17 -52 26 -78 26 -23 0 -49 8 -64 20 -15 12 -41 20 -66 20 -27
0 -51 8 -74 25 -23 17 -47 25 -75 25 -32 0 -47 6 -68 28 -35 36 -34 54 4 86
38 32 77 33 115 4 18 -15 44 -23 71 -24 26 -1 52 -10 68 -23 19 -15 39 -20 71
-19 32 2 49 -3 66 -19 49 -45 249 -45 310 0 17 12 41 20 63 19 20 -1 54 9 82
23 25 14 54 25 63 25 10 0 26 12 35 28 25 39 56 62 86 62 14 0 41 12 60 26 28
21 40 24 69 18 19 -3 46 -6 60 -6z"/>
<path d="M2846 2055 c-32 -32 -56 -86 -56 -127 0 -9 -5 -20 -10 -23 -20 -12
-50 -85 -50 -121 0 -21 -9 -49 -22 -67 -21 -30 -23 -43 -23 -178 0 -145 0
-146 28 -183 17 -22 36 -36 45 -34 24 5 27 46 5 70 -13 15 -17 34 -16 72 3 84
3 114 1 159 -2 30 3 51 18 72 13 18 23 52 26 83 4 43 12 60 38 87 23 24 30 39
26 53 -9 27 17 87 43 104 25 15 28 53 5 62 -22 8 -20 10 -58 -29z"/>
<path d="M1740 936 c-9 -12 -8 -33 6 -98 9 -46 20 -148 23 -228 5 -131 8 -145
25 -148 10 -2 22 2 27 10 15 23 9 229 -10 341 -22 127 -40 159 -71 123z"/>
<path d="M2303 892 c-32 -20 -68 -193 -61 -290 8 -101 38 -150 72 -117 12 13
12 21 -1 62 -18 59 -12 158 16 258 14 50 17 73 9 82 -12 15 -18 16 -35 5z"/>
</g>
</svg>
